<svg width="518" height="394" viewBox="0 0 518 394" fill="none" xmlns="http://www.w3.org/2000/svg">
<path d="M518 347.038H0V347.297H518V347.038Z" fill="#EBEBEB"/>
<path d="M88.661 356.901H54.3486V357.16H88.661V356.901Z" fill="#EBEBEB"/>
<path d="M186.305 354.093H150.562V354.352H186.305V354.093Z" fill="#EBEBEB"/>
<path d="M136.234 361.905H78.8193V362.164H136.234V361.905Z" fill="#EBEBEB"/>
<path d="M464.988 362.858H420.243V363.117H464.988V362.858Z" fill="#EBEBEB"/>
<path d="M407.49 356.383H383.766V356.642H407.49V356.383Z" fill="#EBEBEB"/>
<path d="M299.725 360.537H202.673V360.796H299.725V360.537Z" fill="#EBEBEB"/>
<path d="M245.532 300.832H45.4911C43.924 300.83 42.422 300.205 41.3149 299.096C40.2078 297.987 39.5859 296.484 39.5859 294.917V13.7153C39.5996 12.1572 40.2274 10.6674 41.3331 9.56948C42.4388 8.47157 43.933 7.85423 45.4911 7.85156H245.532C247.101 7.85156 248.606 8.47481 249.715 9.58419C250.825 10.6936 251.448 12.1982 251.448 13.7671V294.917C251.448 296.486 250.825 297.99 249.715 299.1C248.606 300.209 247.101 300.832 245.532 300.832ZM45.4911 8.05876C43.9927 8.06151 42.5566 8.65867 41.498 9.71919C40.4395 10.7797 39.8449 12.2169 39.8449 13.7153V294.917C39.8449 296.415 40.4395 297.852 41.498 298.913C42.5566 299.973 43.9927 300.571 45.4911 300.573H245.532C247.032 300.571 248.469 299.974 249.529 298.914C250.589 297.853 251.186 296.416 251.189 294.917V13.7153C251.186 12.216 250.589 10.7788 249.529 9.71856C248.469 8.65834 247.032 8.0615 245.532 8.05876H45.4911Z" fill="#EBEBEB"/>
<path d="M469.629 300.832H269.578C268.01 300.83 266.507 300.206 265.398 299.097C264.289 297.988 263.665 296.485 263.662 294.917V13.7153C263.678 12.1563 264.309 10.6665 265.416 9.56883C266.523 8.4712 268.019 7.8542 269.578 7.85156H469.629C471.186 7.85695 472.677 8.47549 473.781 9.57311C474.884 10.6707 475.51 12.159 475.524 13.7153V294.917C475.524 296.482 474.904 297.984 473.799 299.092C472.694 300.201 471.195 300.827 469.629 300.832ZM269.578 8.05876C268.078 8.0615 266.641 8.65834 265.581 9.71856C264.521 10.7788 263.924 12.216 263.921 13.7153V294.917C263.924 296.416 264.521 297.853 265.581 298.914C266.641 299.974 268.078 300.571 269.578 300.573H469.629C471.129 300.571 472.566 299.974 473.626 298.914C474.686 297.853 475.283 296.416 475.286 294.917V13.7153C475.283 12.216 474.686 10.7788 473.626 9.71856C472.566 8.65834 471.129 8.0615 469.629 8.05876H269.578Z" fill="#EBEBEB"/>
<path d="M210.038 343.826H153.949V347.038H210.038V343.826Z" fill="#E0E0E0"/>
<path d="M176.949 273.679L161.409 343.826H202.487L186.947 273.679C186.648 272.582 185.997 271.613 185.094 270.922C184.191 270.231 183.085 269.857 181.948 269.857C180.811 269.857 179.705 270.231 178.802 270.922C177.898 271.613 177.247 272.582 176.949 273.679Z" fill="#E0E0E0"/>
<path d="M190.116 287.603H173.872L169.945 305.38H194.043L190.116 287.603Z" fill="#F5F5F5"/>
<path d="M194.726 308.509H169.261L167.262 317.512H196.715L194.726 308.509Z" fill="#F5F5F5"/>
<path d="M75.1309 347.038H83.4603L107.993 209.872H99.653L75.1309 347.038Z" fill="#E0E0E0"/>
<path d="M293.344 347.038H301.684L326.216 209.872H317.876L293.344 347.038Z" fill="#E0E0E0"/>
<path d="M350.748 216.554H75.1309V266.406H350.748V216.554Z" fill="#EBEBEB"/>
<path d="M105.008 264.199H76.4355L92.2864 218.75H120.859L105.008 264.199Z" fill="#FAFAFA"/>
<path d="M162.155 264.199H133.582L149.433 218.75H177.995L162.155 264.199Z" fill="#FAFAFA"/>
<path d="M219.3 264.199H190.728L206.568 218.75H235.141L219.3 264.199Z" fill="#FAFAFA"/>
<path d="M276.435 264.199H247.862L263.713 218.75H292.286L276.435 264.199Z" fill="#FAFAFA"/>
<path d="M333.582 264.199H305.009L320.86 218.75H349.432L333.582 264.199Z" fill="#FAFAFA"/>
<path d="M132.526 347.038H124.186L99.6533 209.872H107.993L132.526 347.038Z" fill="#E0E0E0"/>
<path d="M350.738 347.038H342.408L317.876 209.872H326.216L350.738 347.038Z" fill="#E0E0E0"/>
<path d="M463.092 342.822H389.536V347.038H463.092V342.822Z" fill="#E0E0E0"/>
<path d="M419.217 253.021L399.378 342.821H453.25L433.411 253.021C431.732 245.427 420.896 245.427 419.217 253.021Z" fill="#E0E0E0"/>
<path d="M436.964 269.1H415.664L410.515 292.41H442.113L436.964 269.1Z" fill="#F5F5F5"/>
<path d="M443.014 296.512H409.614L407.003 308.312H445.625L443.014 296.512Z" fill="#F5F5F5"/>
<path d="M479.668 201.48V231.835C479.667 232.307 479.555 232.773 479.341 233.194C479.127 233.615 478.817 233.98 478.435 234.259C478.054 234.539 477.613 234.724 477.147 234.802C476.681 234.879 476.203 234.846 475.752 234.704L37.5242 95.8286C36.9212 95.6318 36.396 95.2491 36.0238 94.7355C35.6516 94.2219 35.4515 93.6036 35.4522 92.9693V62.6041C35.4505 62.131 35.5609 61.6642 35.7744 61.242C35.988 60.8198 36.2985 60.4542 36.6806 60.1752C37.0627 59.8962 37.5055 59.7117 37.9727 59.6369C38.4399 59.5621 38.9181 59.5991 39.3682 59.7448L477.596 198.569C478.208 198.768 478.739 199.159 479.112 199.683C479.485 200.207 479.68 200.837 479.668 201.48Z" fill="#EBEBEB"/>
<path d="M445.179 222.697L469.308 230.343L455.923 194.073L431.805 186.427L445.179 222.697Z" fill="#FAFAFA"/>
<path d="M396.933 207.406L421.062 215.052L407.677 178.781L383.559 171.136L396.933 207.406Z" fill="#FAFAFA"/>
<path d="M348.686 192.125L372.814 199.76L359.429 163.49L335.301 155.844L348.686 192.125Z" fill="#FAFAFA"/>
<path d="M300.44 176.823L324.568 184.479L311.183 148.199L287.055 140.553L300.44 176.823Z" fill="#FAFAFA"/>
<path d="M252.194 161.542L276.312 169.188L262.937 132.907L238.809 125.261L252.194 161.542Z" fill="#FAFAFA"/>
<path d="M203.948 146.251L228.066 153.896L214.691 117.616L190.562 109.97L203.948 146.251Z" fill="#FAFAFA"/>
<path d="M155.69 130.959L179.819 138.605L166.434 102.324L142.315 94.6787L155.69 130.959Z" fill="#FAFAFA"/>
<path d="M107.443 115.668L131.572 123.314L118.186 87.033L94.0684 79.3873L107.443 115.668Z" fill="#FAFAFA"/>
<path d="M59.197 100.377L83.3255 108.022L69.9403 71.7416L45.8223 64.0959L59.197 100.377Z" fill="#FAFAFA"/>
<path d="M259 393.824C369.937 393.824 459.87 388.573 459.87 382.096C459.87 375.619 369.937 370.369 259 370.369C148.062 370.369 58.1299 375.619 58.1299 382.096C58.1299 388.573 148.062 393.824 259 393.824Z" fill="#F5F5F5"/>
<path d="M338.222 373.114H326.277V13.1559C326.277 11.2186 338.222 11.2186 338.222 13.1559V373.114Z" fill="#263238"/>
<path d="M338.222 148.333L326.277 150.737V134.212H338.222V148.333Z" fill="black"/>
<path d="M420.895 25.233L253.277 12.7768C246.43 12.268 240.466 17.4062 239.958 24.2533L232.962 118.384C232.454 125.231 237.592 131.194 244.439 131.703L412.057 144.159C418.905 144.668 424.868 139.53 425.377 132.683L432.372 38.5521C432.881 31.705 427.742 25.7418 420.895 25.233Z" fill="white"/>
<path d="M412.981 145.774C412.639 145.774 412.287 145.774 411.945 145.774L244.32 133.342C240.626 133.056 237.195 131.32 234.777 128.513C232.358 125.707 231.149 122.057 231.411 118.362L238.415 24.2307C238.698 20.535 240.433 17.1017 243.24 14.6811C246.047 12.2604 249.698 11.0491 253.395 11.3118L421.02 23.7438C424.714 24.03 428.145 25.7659 430.563 28.5726C432.982 31.3793 434.191 35.0288 433.929 38.7244L426.925 132.855C426.657 136.371 425.074 139.656 422.491 142.056C419.909 144.456 416.517 145.795 412.991 145.805L412.981 145.774ZM252.339 14.3162C249.591 14.3271 246.948 15.3745 244.939 17.249C242.931 19.1236 241.703 21.6872 241.502 24.4276L234.499 118.559C234.298 121.421 235.236 124.247 237.108 126.422C238.981 128.596 241.636 129.944 244.496 130.172L412.121 142.604C414.996 142.81 417.835 141.869 420.019 139.988C422.203 138.108 423.553 135.439 423.776 132.565L430.779 38.4343C430.99 35.5582 430.052 32.7158 428.17 30.5307C426.288 28.3457 423.616 26.9965 420.74 26.7793L253.116 14.3473C252.888 14.3266 252.608 14.3162 252.339 14.3162Z" fill="#1351B4"/>
<path d="M297.788 62.8114L276.736 61.2366L277.441 51.7365L300.357 28.2711L310.437 29.017L308.531 54.5855L313.711 54.9792L313.048 63.9406L307.868 63.5573L307.288 71.3376L297.218 70.5814L297.788 62.8114ZM298.461 53.8396L299.404 40.7446L287.335 53.0108L298.461 53.8396Z" fill="#1351B4"/>
<path d="M317.679 51.0216C318.273 43.1066 320.124 37.6952 323.232 34.7875C326.34 31.8798 330.795 30.6193 336.596 31.0061C338.947 31.1119 341.259 31.6383 343.423 32.5601C345.011 33.276 346.438 34.3049 347.619 35.5852C348.606 36.6873 349.423 37.9304 350.043 39.2734C350.604 40.6683 350.993 42.1258 351.204 43.6142C351.754 46.8469 351.904 50.1351 351.649 53.4044C351.076 60.9603 349.387 66.389 346.583 69.6903C343.779 72.9917 339.248 74.4145 332.991 73.9587C330.061 73.8635 327.196 73.0753 324.63 71.6587C322.54 70.363 320.833 68.5316 319.689 66.3544C318.674 64.3321 318.039 62.1411 317.814 59.8898C317.463 56.9463 317.418 53.9744 317.679 51.0216ZM329.137 51.8919C328.743 57.1962 328.944 60.8533 329.738 62.8631C330.525 64.8626 331.81 65.9711 333.592 66.0747C334.724 66.1542 335.842 65.7817 336.7 65.0387C337.777 64.0232 338.537 62.7168 338.886 61.278C339.58 58.5649 339.993 55.7877 340.119 52.99C340.526 47.4647 340.333 43.7178 339.538 41.7494C339.27 40.8787 338.745 40.1097 338.031 39.5438C337.317 38.9779 336.448 38.6416 335.539 38.5793C334.631 38.4935 333.718 38.6992 332.934 39.1668C332.15 39.6343 331.535 40.3393 331.178 41.1796C330.211 43.0859 329.531 46.6566 329.137 51.8919Z" fill="#1351B4"/>
<path d="M368.298 46.1835L357.513 43.4174C358.478 40.2604 360.549 37.5571 363.346 35.8028C366.067 34.1314 369.793 33.4753 374.524 33.8344C379.953 34.2419 383.803 35.5473 386.075 37.7505C387.167 38.7401 388.015 39.9682 388.554 41.3393C389.093 42.7103 389.309 44.1873 389.183 45.6552C389.072 47.3952 388.428 49.0588 387.339 50.4208C386.064 51.9503 384.441 53.1512 382.605 53.9225C383.876 54.2982 385.084 54.8603 386.189 55.5904C387.48 56.5106 388.505 57.754 389.163 59.1957C389.851 60.7901 390.118 62.5344 389.94 64.2617C389.721 66.701 388.867 69.0405 387.464 71.0475C386.029 73.1723 383.99 74.8179 381.61 75.7717C378.56 76.8674 375.299 77.2467 372.079 76.8802C369.028 76.765 366.026 76.0871 363.221 74.8807C361.186 73.8976 359.432 72.415 358.124 70.571C356.755 68.5509 355.811 66.2741 355.348 63.8784L367.013 63.205C367.085 65.0087 367.699 66.7488 368.774 68.1985C369.76 69.2018 371.097 69.7839 372.503 69.8225C373.91 69.8611 375.276 69.3533 376.316 68.4057C377.491 67.2247 378.166 65.637 378.202 63.9717C378.436 62.3487 378.018 60.6991 377.041 59.3822C376.559 58.8064 375.959 58.3403 375.282 58.0151C374.605 57.6899 373.866 57.5131 373.115 57.4967C371.839 57.4605 370.564 57.5929 369.323 57.8903L370.535 49.6749C371.026 49.7944 371.525 49.8809 372.027 49.9339C372.722 50.0058 373.424 49.9393 374.092 49.7384C374.761 49.5374 375.383 49.206 375.923 48.7632C376.438 48.3692 376.862 47.8695 377.168 47.2976C377.473 46.7258 377.653 46.0951 377.694 45.448C377.76 44.896 377.714 44.3363 377.559 43.8024C377.405 43.2684 377.144 42.7711 376.793 42.34C376.404 41.9236 375.934 41.5905 375.412 41.3608C374.89 41.1311 374.327 41.0095 373.757 41.0035C373.149 40.9403 372.534 40.9994 371.949 41.1773C371.363 41.3553 370.819 41.6484 370.349 42.0395C369.245 43.1696 368.527 44.6202 368.298 46.1835Z" fill="#1351B4"/>
<path d="M281.865 79.1387L297.944 80.3715L297.633 84.5155L287.573 83.7696L287.335 86.8776L296.659 87.5821L296.358 91.5396L287.034 90.8455L286.755 94.6683L297.115 95.4453L296.794 99.8379L280.425 98.6155L281.865 79.1387Z" fill="#1351B4"/>
<path d="M300.098 100.056L301.548 80.6409L311.545 81.3764C312.982 81.4341 314.403 81.7028 315.762 82.1741C316.705 82.555 317.492 83.2407 318 84.1218C318.481 85.0475 318.714 86.0826 318.674 87.1253C318.634 88.1681 318.323 89.1824 317.772 90.0685C317.242 90.8218 316.529 91.4279 315.7 91.8297C315.015 92.1459 314.284 92.3522 313.535 92.4409C314.076 92.643 314.585 92.9221 315.047 93.2697C315.385 93.5982 315.68 93.967 315.928 94.3679C316.219 94.7645 316.472 95.1877 316.684 95.6318L319.17 101.475L312.385 100.967L309.618 94.7512C309.407 94.1643 309.075 93.6279 308.645 93.1765C308.239 92.8445 307.738 92.6487 307.215 92.617H306.687L306.096 100.501L300.098 100.056ZM306.987 88.9496L309.515 89.1361C310.054 89.1397 310.591 89.0911 311.121 88.991C311.519 88.9467 311.887 88.7589 312.157 88.4627C312.426 88.1534 312.587 87.7638 312.613 87.3542C312.651 87.0864 312.626 86.8135 312.542 86.5566C312.458 86.2997 312.315 86.0656 312.126 85.8727C311.485 85.4174 310.715 85.1813 309.929 85.1993L307.287 85.0024L306.987 88.9496Z" fill="#1351B4"/>
<path d="M321.159 101.589L322.599 82.1742L332.607 82.9201C334.04 82.9751 335.457 83.2404 336.813 83.7075C337.758 84.0884 338.549 84.7739 339.061 85.6552C339.442 86.3046 339.686 87.0251 339.778 87.7723C339.869 88.5196 339.807 89.2777 339.594 89.9999C339.382 90.7221 339.023 91.3932 338.542 91.9716C338.06 92.55 337.464 93.0235 336.792 93.363C336.107 93.6781 335.376 93.8844 334.627 93.9742C335.167 94.1789 335.677 94.4578 336.14 94.803C336.469 95.1389 336.764 95.5068 337.02 95.9012C337.313 96.2949 337.563 96.7186 337.766 97.1651L340.253 103.008L333.477 102.511L330.711 96.2949C330.498 95.7085 330.167 95.1724 329.737 94.7202C329.329 94.3849 328.825 94.1888 328.297 94.1607H327.769L327.189 102.045L321.159 101.589ZM328.049 90.4933L330.576 90.6798C331.115 90.6775 331.652 90.629 332.182 90.5347C332.584 90.4956 332.955 90.3025 333.218 89.996C333.495 89.6944 333.66 89.3066 333.684 88.8978C333.72 88.6286 333.695 88.3547 333.611 88.0965C333.526 87.8383 333.385 87.6023 333.197 87.406C332.555 86.9489 331.779 86.7159 330.991 86.743L328.411 86.5876L328.049 90.4933Z" fill="#1351B4"/>
<path d="M341.725 93.3734C341.69 92.0113 341.957 90.6584 342.508 89.4121C343.058 88.1657 343.878 87.0568 344.909 86.1652C345.939 85.2736 347.154 84.6214 348.467 84.2556C349.779 83.8897 351.156 83.8193 352.499 84.0494C355.732 84.2842 358.149 85.3375 359.751 87.2092C360.585 88.2529 361.198 89.4548 361.554 90.7421C361.91 92.0295 362.002 93.3758 361.823 94.6995C361.755 96.6295 361.218 98.5139 360.259 100.19C359.402 101.554 358.162 102.634 356.695 103.298C354.973 104.067 353.082 104.377 351.204 104.2C349.329 104.127 347.494 103.632 345.838 102.749C344.423 101.91 343.293 100.665 342.595 99.175C341.787 97.355 341.487 95.3504 341.725 93.3734ZM347.723 93.8396C347.481 95.3228 347.755 96.8443 348.5 98.1494C348.854 98.5822 349.293 98.9388 349.788 99.1977C350.284 99.4567 350.827 99.6127 351.384 99.6562C351.942 99.6998 352.503 99.63 353.032 99.4512C353.562 99.2723 354.051 98.9881 354.468 98.6156C355.234 97.8282 355.7 96.3571 355.856 94.1815C356.093 92.7479 355.806 91.277 355.048 90.0375C354.705 89.5905 354.266 89.2257 353.765 88.9694C353.263 88.7131 352.71 88.5719 352.147 88.556C351.599 88.4884 351.042 88.5465 350.52 88.726C349.998 88.9056 349.523 89.2017 349.132 89.592C348.175 90.7967 347.676 92.3017 347.723 93.8396Z" fill="#1351B4"/>
<path d="M364.434 104.811L365.874 85.3857L375.871 86.1317C377.308 86.1893 378.729 86.4581 380.088 86.9294C381.015 87.312 381.789 87.9939 382.284 88.8667C382.838 89.8407 383.074 90.9637 382.957 92.0783C382.908 93.0577 382.597 94.0059 382.056 94.8237C381.526 95.5748 380.813 96.1776 379.984 96.5745C379.299 96.892 378.568 97.1017 377.819 97.1962C378.832 97.5056 379.689 98.1914 380.212 99.1127C380.501 99.5123 380.751 99.9391 380.958 100.387L383.444 106.23L376.669 105.722L373.903 99.5064C373.687 98.9214 373.356 98.3859 372.929 97.9317C372.518 97.6007 372.015 97.4053 371.489 97.3723H370.96L370.37 105.256L364.434 104.811ZM371.313 93.7048L373.84 93.8913C374.383 93.8951 374.924 93.8465 375.457 93.7463C375.859 93.7071 376.23 93.5141 376.493 93.2075C376.771 92.9069 376.936 92.5185 376.959 92.1094C376.992 91.8418 376.966 91.5701 376.882 91.314C376.798 91.0578 376.658 90.8235 376.472 90.6279C375.831 90.1664 375.055 89.9297 374.265 89.9545L371.634 89.7577L371.313 93.7048Z" fill="#1351B4"/>
<path d="M261.849 120.092L263.164 102.376L275.12 103.267L274.964 105.339L265.35 104.624L264.946 110.105L273.234 110.726L273.079 112.798L264.791 112.177L264.19 120.226L261.849 120.092Z" fill="#263238"/>
<path d="M276.778 112.488C276.819 109.952 277.853 107.535 279.658 105.754C280.501 104.982 281.499 104.398 282.584 104.041C283.67 103.684 284.82 103.561 285.957 103.682C287.514 103.776 289.015 104.295 290.297 105.184C291.54 106.051 292.498 107.265 293.053 108.675C293.651 110.213 293.885 111.869 293.737 113.513C293.639 115.185 293.141 116.808 292.287 118.248C291.513 119.564 290.351 120.61 288.961 121.242C287.591 121.872 286.082 122.14 284.579 122.019C283.002 121.925 281.484 121.39 280.196 120.475C278.958 119.595 278.007 118.37 277.461 116.953C276.899 115.535 276.665 114.008 276.778 112.488ZM279.191 112.705C278.95 114.541 279.434 116.399 280.538 117.885C281.056 118.511 281.695 119.026 282.417 119.398C283.139 119.771 283.929 119.993 284.739 120.052C285.549 120.111 286.363 120.006 287.131 119.742C287.9 119.478 288.607 119.061 289.21 118.517C290.536 117.118 291.277 115.265 291.282 113.337C291.41 112.042 291.258 110.735 290.836 109.504C290.466 108.445 289.788 107.522 288.888 106.852C287.981 106.186 286.903 105.795 285.78 105.722C284.989 105.652 284.191 105.739 283.433 105.979C282.676 106.219 281.973 106.607 281.367 107.121C280.124 108.219 279.388 110.084 279.191 112.747V112.705Z" fill="#263238"/>
<path d="M296.13 122.64L297.456 104.925L305.309 105.515C306.532 105.552 307.738 105.804 308.873 106.261C309.676 106.643 310.326 107.285 310.717 108.084C311.149 108.928 311.336 109.875 311.255 110.82C311.229 111.408 311.086 111.986 310.835 112.519C310.584 113.053 310.231 113.531 309.795 113.928C308.691 114.808 307.321 115.287 305.91 115.285C306.4 115.552 306.853 115.883 307.257 116.269C307.944 117.032 308.538 117.873 309.028 118.776L311.753 123.832L308.8 123.604L306.728 119.75C306.127 118.631 305.62 117.781 305.216 117.181C304.923 116.698 304.552 116.267 304.117 115.906C303.805 115.668 303.455 115.482 303.081 115.357C302.656 115.26 302.222 115.197 301.786 115.171L299.062 114.974L298.482 122.837L296.13 122.64ZM299.238 112.923L304.273 113.296C305.121 113.392 305.979 113.343 306.811 113.151C307.392 113.002 307.906 112.662 308.272 112.187C308.617 111.738 308.823 111.198 308.862 110.633C308.899 110.244 308.851 109.851 308.72 109.482C308.59 109.114 308.38 108.778 308.106 108.499C307.319 107.824 306.315 107.456 305.278 107.463L299.673 107.038L299.238 112.923Z" fill="#263238"/>
<path d="M313.908 123.966L315.224 106.251L321.875 106.738C322.988 106.779 324.081 107.047 325.087 107.525C325.857 107.924 326.486 108.55 326.889 109.317C327.284 110.05 327.464 110.88 327.407 111.711C327.352 112.461 327.083 113.181 326.63 113.783C326.127 114.456 325.44 114.971 324.652 115.264C325.609 115.59 326.435 116.219 327.003 117.056C327.523 117.872 327.757 118.838 327.666 119.802C327.613 120.605 327.376 121.385 326.972 122.081C326.624 122.704 326.135 123.237 325.542 123.635C324.93 124.006 324.251 124.253 323.543 124.36C322.59 124.507 321.623 124.535 320.663 124.443L313.908 123.966ZM316.405 122.05L320.818 122.381C321.353 122.42 321.89 122.42 322.424 122.381C322.906 122.337 323.376 122.208 323.812 121.998C324.207 121.779 324.539 121.461 324.776 121.076C325.071 120.594 325.235 120.042 325.249 119.476C325.264 118.911 325.129 118.351 324.859 117.854C324.554 117.335 324.083 116.934 323.522 116.714C322.695 116.425 321.829 116.261 320.953 116.228L316.861 115.927L316.405 122.05ZM317.016 113.865L320.849 114.156C321.596 114.252 322.351 114.252 323.098 114.156C323.642 114.059 324.139 113.782 324.506 113.368C324.858 112.941 325.059 112.409 325.076 111.856C325.127 111.31 325.023 110.76 324.776 110.271C324.531 109.797 324.122 109.429 323.626 109.235C322.76 108.964 321.86 108.814 320.953 108.789L317.41 108.52L317.016 113.865Z" fill="#263238"/>
<path d="M330.877 125.23L332.193 107.515L334.544 107.691L333.218 125.406L330.877 125.23Z" fill="#263238"/>
<path d="M337.353 125.707L338.679 107.991L344.781 108.447C345.831 108.501 346.872 108.664 347.889 108.934C348.831 109.21 349.691 109.711 350.396 110.395C351.286 111.278 351.932 112.378 352.271 113.586C352.655 114.97 352.781 116.414 352.644 117.844C352.578 119.055 352.33 120.249 351.908 121.387C351.585 122.288 351.112 123.129 350.51 123.873C350.028 124.471 349.441 124.976 348.78 125.365C348.1 125.736 347.36 125.985 346.594 126.101C345.644 126.241 344.68 126.268 343.724 126.183L337.353 125.707ZM339.86 123.801L343.641 124.08C344.568 124.176 345.503 124.134 346.418 123.956C347.025 123.823 347.592 123.549 348.075 123.158C348.721 122.562 349.221 121.824 349.536 121.003C349.954 119.923 350.199 118.783 350.261 117.626C350.454 116.151 350.246 114.652 349.66 113.285C349.229 112.354 348.5 111.592 347.588 111.12C346.625 110.764 345.61 110.568 344.584 110.54L340.865 110.26L339.86 123.801Z" fill="#263238"/>
<path d="M355.234 127.043L356.55 109.328L362.652 109.773C363.703 109.826 364.745 109.993 365.76 110.271C366.7 110.545 367.557 111.047 368.257 111.731C369.148 112.61 369.794 113.706 370.132 114.912C370.515 116.297 370.644 117.739 370.515 119.17C370.439 120.38 370.191 121.573 369.78 122.713C369.455 123.619 368.979 124.463 368.371 125.21C367.889 125.804 367.302 126.306 366.641 126.691C365.964 127.062 365.228 127.311 364.465 127.427C363.515 127.565 362.552 127.596 361.595 127.52L355.234 127.043ZM357.731 125.127L361.513 125.406C362.439 125.502 363.375 125.461 364.289 125.282C364.897 125.151 365.465 124.878 365.947 124.484C366.593 123.893 367.094 123.158 367.407 122.34C367.826 121.259 368.071 120.12 368.133 118.963C368.325 117.488 368.118 115.989 367.532 114.622C367.104 113.688 366.374 112.925 365.46 112.456C364.495 112.091 363.476 111.892 362.445 111.866L358.726 111.586L357.731 125.127Z" fill="#263238"/>
<path d="M373.156 128.369L374.472 110.654L387.277 111.607L387.122 113.679L376.658 112.902L376.254 118.331L386.054 119.056L385.899 121.128L376.098 120.392L375.653 126.422L386.531 127.24L386.376 129.312L373.156 128.369Z" fill="#263238"/>
<path d="M389.588 129.592L390.904 111.876L393.307 112.052L401.595 126.66L402.631 112.747L404.879 112.912L403.553 130.638L401.15 130.452L392.862 115.844L391.826 129.758L389.588 129.592Z" fill="#263238"/>
<path d="M176.037 121.698L176.379 123.77L176.773 125.935C177.063 127.375 177.332 128.825 177.664 130.255C178.296 133.135 179.021 135.974 179.85 138.719C180.264 140.087 180.72 141.444 181.207 142.749C181.694 144.055 182.243 145.36 182.75 146.582C183.758 148.877 185.034 151.043 186.553 153.037L183.714 151.172C184.43 151.593 185.258 151.784 186.086 151.721C187.439 151.594 188.755 151.208 189.961 150.581C191.524 149.802 193.012 148.879 194.405 147.826C195.151 147.276 195.908 146.696 196.633 146.075C197.006 145.774 197.368 145.463 197.669 145.153C197.969 144.842 198.425 144.49 198.705 144.272L199.254 143.827C199.932 143.283 200.774 142.985 201.644 142.98C202.513 142.976 203.358 143.265 204.042 143.802C204.726 144.338 205.209 145.09 205.411 145.935C205.614 146.78 205.525 147.669 205.159 148.458C204.848 149.11 204.641 149.608 204.361 150.146C204.082 150.685 203.812 151.182 203.522 151.7C202.921 152.736 202.289 153.72 201.585 154.694C200.136 156.725 198.445 158.573 196.55 160.195C195.506 161.08 194.387 161.87 193.204 162.557C190.47 164.195 187.356 165.091 184.17 165.158C182.416 165.168 180.67 164.916 178.99 164.412C178.066 164.148 177.227 163.648 176.555 162.962L176.162 162.557C173.488 159.783 171.221 156.644 169.428 153.233C167.779 150.127 166.379 146.895 165.242 143.568C164.098 140.345 163.14 137.059 162.372 133.726C161.999 132.078 161.637 130.421 161.336 128.753C161.191 127.914 161.046 127.085 160.922 126.235C160.798 125.386 160.694 124.588 160.59 123.562C160.401 121.571 160.988 119.583 162.228 118.013C163.468 116.443 165.266 115.411 167.247 115.134C169.229 114.856 171.241 115.353 172.864 116.522C174.488 117.691 175.599 119.441 175.965 121.408L176.037 121.698Z" fill="#263238"/>
<path d="M198.57 143.651C196.384 144.345 193.815 146.872 194.623 149.867C195.431 152.861 204.289 155.047 204.579 149.721C202.02 144.604 198.57 143.651 198.57 143.651Z" fill="white"/>
<path d="M197.4 146.541L198.342 145.101L208.029 142.532C208.029 142.532 209.438 148.696 202.445 151.037C201.948 151.159 201.424 151.081 200.984 150.82L198.197 149.369C197.952 149.243 197.736 149.068 197.562 148.854C197.387 148.641 197.259 148.394 197.184 148.128C197.109 147.863 197.09 147.585 197.127 147.312C197.164 147.039 197.257 146.777 197.4 146.541Z" fill="#B55B52"/>
<path d="M124.403 111.193C136.773 108.944 153.535 108.52 165.688 110.602C168.668 111.108 171.35 112.717 173.2 115.108C175.05 117.499 175.933 120.498 175.675 123.511C174.981 131.498 174.1 138.553 173.603 144.086C174.152 158.134 172.96 181.61 172.96 186.562L121.482 187.287C119.192 180.874 119.948 151.98 115.929 122.899C115.538 120.229 116.205 117.511 117.787 115.324C119.37 113.138 121.744 111.655 124.403 111.193Z" fill="#263238"/>
<path opacity="0.2" d="M150.832 186.582L149.796 186.448C152.717 163.397 149.796 124.775 149.796 124.391L150.832 124.308C150.863 124.702 153.774 163.428 150.832 186.582Z" fill="black"/>
<path d="M155.504 111.783C153.432 111.234 155.307 109.141 155.307 109.141C160.512 109.153 165.708 109.572 170.847 110.395C171.821 111.141 170.764 112.104 170.764 112.104C170.764 112.104 161.534 113.42 155.504 111.783Z" fill="#1351B4"/>
<path opacity="0.2" d="M152.593 108.83C152.593 108.83 155.701 114.964 151.557 120.537C153.774 120.675 155.916 121.389 157.773 122.609C157.773 122.609 159.233 117.357 155.12 109.359C154.675 108.603 152.593 108.83 152.593 108.83Z" fill="black"/>
<path d="M155.855 111.804C156.653 115.544 149.702 122.609 149.702 122.609C149.702 122.609 137.415 116.165 136.638 112.467L155.855 111.804Z" fill="#1351B4"/>
<path opacity="0.2" d="M123.657 129.447C125.003 132.047 123.367 142.915 118.477 148.333C118.155 143.588 117.751 138.626 117.233 133.581L123.657 129.447Z" fill="black"/>
<path d="M137.954 92.6171L151.878 99.2889C150.407 103.236 149.702 107.339 153.825 109.297C154.399 109.574 154.909 109.966 155.325 110.448C155.74 110.931 156.052 111.494 156.24 112.102C156.429 112.711 156.49 113.351 156.421 113.984C156.351 114.617 156.152 115.229 155.835 115.782C155.185 116.916 154.269 117.874 153.166 118.576C152.064 119.278 150.808 119.702 149.505 119.812C144.667 120.299 139.902 117.191 137.125 114.28C135.985 113.078 137.125 111.669 137.249 109.991C137.788 104.065 138.7 97.8592 137.954 92.6171Z" fill="#B55B52"/>
<path opacity="0.2" d="M144.367 93.9431L151.878 99.2889C151.445 100.385 151.116 101.519 150.894 102.677C147.786 103.713 142.917 100.998 142.834 98.3047C142.793 96.9475 144.005 94.5854 144.367 93.9431Z" fill="black"/>
<path d="M154.126 70.1048C156.788 72.27 159.824 81.9463 155.918 85.852C150.158 79.1594 149.505 69.0999 154.126 70.1048Z" fill="#263238"/>
<path d="M134.1 81.304C135.136 89.592 135.343 94.4612 139.819 98.4083C146.543 104.345 156.54 99.7759 157.98 91.3532C159.275 83.7593 157.338 71.5345 148.998 68.8305C147.151 68.2318 145.182 68.1119 143.275 68.482C141.369 68.8522 139.588 69.7004 138.099 70.947C136.61 72.1936 135.462 73.7978 134.763 75.6093C134.064 77.4208 133.836 79.3803 134.1 81.304Z" fill="#B55B52"/>
<path d="M134.359 88.4316C138.275 88.7217 139.632 79.2526 137.198 73.9276C138.897 74.6321 143.735 73.9276 145.082 71.7209C152.893 73.938 155.815 73.9794 156.809 70.7574C157.804 67.5355 145.527 64.6968 138.42 66.2198C131.313 67.7427 133.406 72.8916 133.406 72.8916C133.406 72.8916 121.368 76.7455 134.359 88.4316Z" fill="#263238"/>
<path d="M131.499 89.0635C132.544 90.7448 134.188 91.9667 136.099 92.4823C138.513 93.0625 139.342 90.6382 138.368 88.2036C137.477 86.0177 135.167 83.0236 132.888 83.5934C130.608 84.1632 130.142 86.919 131.499 89.0635Z" fill="#B55B52"/>
<path d="M145.143 82.6922C145.143 83.3656 145.578 83.8836 146.024 83.8526C146.469 83.8215 146.791 83.2517 146.739 82.5679C146.687 81.8842 146.304 81.3765 145.858 81.4076C145.413 81.4387 145.102 82.0188 145.143 82.6922Z" fill="#263238"/>
<path d="M154.301 81.9462C154.353 82.6196 154.747 83.148 155.182 83.1065C155.617 83.0651 155.949 82.5057 155.907 81.8323C155.866 81.1589 155.472 80.6305 155.027 80.6616C154.581 80.6927 154.26 81.2728 154.301 81.9462Z" fill="#263238"/>
<path d="M152.82 82.6404C153.762 84.6441 154.979 86.5062 156.436 88.1726C155.998 88.5387 155.486 88.8044 154.935 88.9512C154.383 89.0979 153.807 89.1222 153.245 89.0221L152.82 82.6404Z" fill="#A02724"/>
<path d="M148.624 77.3464C148.673 77.3937 148.706 77.4554 148.718 77.5225C148.74 77.624 148.722 77.7302 148.668 77.8189C148.614 77.9077 148.528 77.9722 148.428 77.9991C147.814 78.1609 147.17 78.1739 146.55 78.037C145.93 77.9 145.352 77.6171 144.864 77.2117C144.827 77.1751 144.797 77.1316 144.777 77.0835C144.757 77.0355 144.747 76.984 144.747 76.932C144.747 76.88 144.757 76.8285 144.777 76.7805C144.797 76.7325 144.827 76.6889 144.864 76.6523C144.941 76.5794 145.043 76.5388 145.149 76.5388C145.255 76.5388 145.357 76.5794 145.434 76.6523C145.824 76.9688 146.284 77.1883 146.775 77.2927C147.267 77.3971 147.776 77.3836 148.262 77.2532C148.325 77.2354 148.392 77.2346 148.456 77.251C148.519 77.2674 148.578 77.3003 148.624 77.3464Z" fill="#263238"/>
<path d="M150.303 79.3356C150.241 79.3038 150.19 79.253 150.158 79.1906C150.105 79.1012 150.089 78.9944 150.114 78.8934C150.14 78.7925 150.204 78.7056 150.293 78.6518C150.831 78.3151 151.44 78.1105 152.072 78.0546C152.704 77.9988 153.341 78.0934 153.929 78.3307C153.976 78.3529 154.019 78.3842 154.054 78.4229C154.089 78.4615 154.115 78.5067 154.133 78.5559C154.15 78.605 154.158 78.6571 154.155 78.7092C154.152 78.7612 154.138 78.8122 154.116 78.859C154.067 78.9531 153.984 79.0249 153.883 79.0596C153.783 79.0943 153.674 79.0893 153.577 79.0455C153.11 78.8636 152.607 78.7942 152.109 78.8428C151.61 78.8913 151.13 79.0566 150.707 79.3252C150.647 79.3644 150.578 79.3862 150.507 79.388C150.435 79.3898 150.365 79.3717 150.303 79.3356Z" fill="#263238"/>
<path d="M158.063 75.5438C158.001 75.5606 157.936 75.5628 157.873 75.5502C157.81 75.5376 157.751 75.5106 157.7 75.4713C157.326 75.1399 156.877 74.9039 156.392 74.783C155.906 74.6622 155.399 74.6602 154.913 74.7772C154.813 74.8074 154.705 74.7965 154.612 74.747C154.52 74.6974 154.451 74.6133 154.421 74.513C154.391 74.4127 154.402 74.3045 154.451 74.2122C154.501 74.1199 154.585 74.0511 154.685 74.0209C155.295 73.8611 155.935 73.853 156.549 73.9975C157.163 74.142 157.733 74.4345 158.208 74.8497C158.28 74.9249 158.32 75.0251 158.32 75.1294C158.32 75.2337 158.28 75.3339 158.208 75.4091C158.171 75.4648 158.121 75.5109 158.063 75.5438Z" fill="#263238"/>
<path d="M203.222 178.792C203.003 178.39 202.634 178.091 202.195 177.961C201.756 177.831 201.283 177.88 200.881 178.097L188.21 184.945L182.222 173.86C181.996 173.474 181.629 173.191 181.198 173.07C180.767 172.949 180.305 173 179.911 173.212C179.517 173.424 179.22 173.78 179.083 174.206C178.946 174.632 178.98 175.095 179.177 175.497L185.165 186.582L141.497 210.182C141.096 210.402 140.796 210.77 140.665 211.208C140.533 211.647 140.579 212.119 140.793 212.524C141.012 212.925 141.381 213.224 141.819 213.356C142.257 213.488 142.73 213.442 143.134 213.228L202.528 181.112C202.924 180.893 203.219 180.527 203.349 180.094C203.479 179.66 203.433 179.192 203.222 178.792Z" fill="#263238"/>
<path d="M202.29 236.994C181.57 221.454 117.783 215.238 139.829 186.831L172.981 186.52C172.981 186.52 219.601 210.452 222.139 235.481C224.74 261.516 229.391 302.511 229.391 302.511L216.545 307.069C216.545 307.069 197.773 256.802 202.29 236.994Z" fill="#1351B4"/>
<path opacity="0.2" d="M140.968 201.066C140.202 202.744 139.497 204.484 138.896 206.318C144.076 212.171 154.24 216.678 165.252 220.822C161.834 214.855 154.364 208.224 140.968 201.066Z" fill="black"/>
<path d="M216.658 311.617L229.992 308.188C230.828 307.944 231.722 307.988 232.53 308.312C237.171 310.384 240.134 309.783 244.723 309.504C250.214 309.152 248.981 315.057 245.117 316.062C238.746 317.719 239.212 317.357 233.721 318.776L229.95 319.75L227.785 318.434L226.749 320.506L219.756 322.205C219.578 322.254 219.392 322.266 219.209 322.24C219.027 322.213 218.852 322.149 218.695 322.052C218.538 321.955 218.404 321.826 218.299 321.674C218.195 321.522 218.123 321.35 218.088 321.169L216.658 311.617Z" fill="#263238"/>
<path d="M217 312.922C217.197 312.829 232.147 308.644 232.147 308.644L229.826 297.155L213.25 301.661L217 312.922Z" fill="#263238"/>
<path d="M124.082 271.845C124.714 234.104 116.83 195.678 121.512 187.245L159.969 186.707C159.969 186.707 148.48 249.633 145.465 274.767C142.357 300.915 126.817 368.898 126.817 368.898L114.385 369.094C114.385 369.094 115.856 298.968 124.082 271.845Z" fill="#1351B4"/>
<path d="M113.96 371.104L125.356 370.928C126.236 370.889 127.103 371.144 127.822 371.653C131.966 374.761 132.401 374.886 136.939 375.694C142.388 376.657 139.943 382.096 135.954 382.158C129.365 382.262 129.904 382.024 124.289 382.107L118.187 382.158L117.296 380.366L116.26 382.158H114.654C114.467 382.159 114.283 382.121 114.111 382.047C113.939 381.973 113.785 381.865 113.657 381.729C113.529 381.593 113.43 381.432 113.366 381.257C113.302 381.081 113.275 380.894 113.287 380.708L113.96 371.104Z" fill="#263238"/>
<path d="M113.877 372.461C114.074 372.461 128.225 373.114 128.225 373.114L129.168 360.185L113.794 360.62L113.877 372.461Z" fill="#263238"/>
<path d="M152.085 108.095C152.085 108.095 155.649 114.964 151.557 120.527C153.878 120.639 156.168 121.115 158.342 121.936C158.342 121.936 161.233 114.943 154.861 108.686C154.416 107.94 152.085 108.095 152.085 108.095Z" fill="white"/>
<path d="M120.103 191.223C138.492 192.322 159.575 192.653 172.763 191.223C172.842 191.212 172.918 191.18 172.981 191.131C173.045 191.082 173.094 191.018 173.126 190.944C174.009 188.709 174.398 186.309 174.265 183.909C174.265 183.536 174.017 183.257 173.768 183.267C156.363 183.94 139.062 183.899 120.932 183.267C120.735 183.267 120.538 183.433 120.466 183.712C119.848 185.947 119.586 188.265 119.689 190.581C119.676 190.719 119.711 190.857 119.786 190.974C119.861 191.09 119.972 191.178 120.103 191.223Z" fill="#263238"/>
<path opacity="0.2" d="M120.103 191.223C138.492 192.322 159.575 192.653 172.763 191.223C172.842 191.212 172.918 191.18 172.981 191.131C173.045 191.082 173.094 191.018 173.126 190.944C174.009 188.709 174.398 186.309 174.265 183.909C174.265 183.536 174.017 183.257 173.768 183.267C156.363 183.94 139.062 183.899 120.932 183.267C120.735 183.267 120.538 183.433 120.466 183.712C119.848 185.947 119.586 188.265 119.689 190.581C119.676 190.719 119.711 190.857 119.786 190.974C119.861 191.09 119.972 191.178 120.103 191.223Z" fill="black"/>
<path d="M151.474 194.052C150.172 194.049 148.871 193.966 147.579 193.803L146.698 193.689V192.809C146.698 192.581 146.564 187.225 146.854 182.925L146.916 182.055L147.776 181.972C150.389 181.72 153.018 181.671 155.639 181.827L156.571 181.889V182.822C156.715 186.127 156.597 189.439 156.219 192.726L156.126 193.337L155.546 193.544C154.222 193.92 152.849 194.092 151.474 194.052ZM148.729 191.845C150.573 192.052 152.435 192.02 154.271 191.752C154.531 189.126 154.621 186.485 154.541 183.847C152.644 183.77 150.745 183.805 148.853 183.951C148.687 186.924 148.708 190.27 148.729 191.845Z" fill="white"/>
<path d="M131.489 183.205C131.489 183.205 131.189 189.017 130.764 192.715C129.946 193.565 128.423 192.912 128.423 192.912C128.423 192.912 128.723 187.546 129.086 183.329C129.865 183.095 130.69 183.052 131.489 183.205Z" fill="#1351B4"/>
<path d="M169.448 183.205C169.448 183.205 169.148 189.017 168.723 192.715C167.905 193.565 166.382 192.912 166.382 192.912C166.382 192.912 166.682 187.546 167.045 183.329C167.824 183.095 168.649 183.052 169.448 183.205Z" fill="#1351B4"/>
<path d="M157.472 130.752C158.031 138.242 162.807 139.931 163.48 139.91C164.154 139.89 168.66 138.025 168.101 130.535C166.107 130.474 164.186 129.764 162.631 128.514C161.963 129.212 161.163 129.769 160.277 130.154C159.391 130.538 158.437 130.741 157.472 130.752Z" fill="#1351B4"/>
<path d="M156.436 69.421C161.761 70.312 163.771 72.788 151.784 74.2384C144.857 75.128 137.852 75.2462 130.898 74.5907C130.898 74.5907 146.884 69.3692 156.436 69.421Z" fill="#263238"/>
<path d="M129.925 75.1915C138.689 72.525 147.688 70.7003 156.799 69.7422C156.824 68.6787 156.633 67.6212 156.235 66.6343C155.838 65.6475 155.244 64.752 154.489 64.0027C154.489 64.0027 160.549 62.9667 157.535 61.1537C155.463 59.9416 150.521 59.8069 145.04 56.2845C142.792 58.3565 136.638 61.6717 132.432 62.0965C131.396 63.8784 128.672 68.3125 124.269 70.053C124.331 72.0007 128.713 72.5083 128.713 72.5083C128.695 73.0187 128.795 73.5264 129.005 73.9919C129.215 74.4573 129.53 74.8679 129.925 75.1915Z" fill="#1351B4"/>
<path opacity="0.8" d="M128.713 72.5394C137.633 66.7481 146.19 64.2514 154.489 64.0338C155.244 64.7831 155.838 65.6785 156.236 66.6654C156.633 67.6522 156.825 68.7098 156.799 69.7732C147.689 70.7212 138.691 72.5355 129.925 75.1915C129.534 74.8711 129.222 74.4655 129.012 74.0059C128.802 73.5462 128.7 73.0446 128.713 72.5394Z" fill="#263238"/>
<path d="M144.532 62.4488C145.568 67.5459 149.163 68.4783 149.65 68.4369C150.137 68.3955 153.245 66.9036 152.219 61.8065C150.756 61.8572 149.311 61.4635 148.075 60.6772C147.634 61.1954 147.093 61.6193 146.484 61.9237C145.875 62.2281 145.212 62.4067 144.532 62.4488Z" fill="white"/>
<path d="M150.582 78.3721C151.763 78.5379 153.69 87.4268 147.526 87.9033C142.346 88.3074 140.72 83.5521 140.72 81.8842C140.72 79.3978 148.904 78.1338 150.582 78.3721Z" fill="#263238"/>
<path d="M153.193 78.2996C152.458 78.745 154.115 88.2141 158.373 87.2195C161.999 86.3804 161.388 81.2314 160.797 79.5635C159.958 77.046 154.24 77.6365 153.193 78.2996Z" fill="#263238"/>
<g opacity="0.2">
<path d="M148.396 78.4653L151.618 84.3395C151.402 85.4621 150.769 86.4614 149.847 87.1366L145.402 79.0144C146.388 78.7691 147.388 78.5858 148.396 78.4653Z" fill="white"/>
<path d="M144.086 79.3356L148.655 87.6236C148.291 87.7295 147.915 87.7955 147.536 87.8204C147.288 87.8355 147.039 87.8355 146.79 87.8204L142.46 79.9261C142.986 79.688 143.53 79.4906 144.086 79.3356Z" fill="white"/>
<path d="M158.414 77.8955L161.274 83.0755C161.238 83.966 160.993 84.8355 160.559 85.6137L156.229 77.6883C156.963 77.6783 157.695 77.7477 158.414 77.8955Z" fill="white"/>
<path d="M160 86.3492C159.738 86.6097 159.429 86.8172 159.088 86.9604L154.146 77.9472C154.526 77.8625 154.91 77.8003 155.296 77.7607L160 86.3492Z" fill="white"/>
</g>
<path d="M216.576 135.217C217.105 134.989 216.214 132.876 215.685 133.094L143.227 163.49C143.143 163.352 143.012 163.248 142.858 163.199C142.704 163.149 142.537 163.157 142.388 163.22L139.353 164.484C139.204 164.55 139.083 164.666 139.011 164.812C138.939 164.958 138.921 165.124 138.959 165.282L129.428 169.271C127.301 170.172 125.398 171.531 123.854 173.249L119.586 178.015C119.506 179.117 119.006 180.147 118.189 180.892C117.371 181.636 116.299 182.038 115.193 182.013H114.561L92.6602 195.243C91.8551 195.73 91.2287 196.464 90.8741 197.336C90.5195 198.208 90.4555 199.17 90.6918 200.081C91.4542 203.26 92.7428 206.289 94.5043 209.043C94.8591 209.573 95.3257 210.019 95.8715 210.349C96.4172 210.679 97.0287 210.885 97.6629 210.953C98.2971 211.022 98.9385 210.95 99.5419 210.743C100.145 210.537 100.696 210.2 101.155 209.758L123.284 188.447C124.22 187.546 124.804 186.342 124.932 185.049L125.201 182.314L129.987 176.968C130.673 178.184 131.799 179.091 133.134 179.499C134.469 179.908 135.91 179.787 137.158 179.163C138.407 178.539 139.368 177.458 139.842 176.145C140.316 174.832 140.267 173.387 139.705 172.109C139.68 172.044 139.649 171.982 139.612 171.923L141.383 171.177C141.468 171.32 141.601 171.429 141.759 171.482C141.917 171.535 142.089 171.53 142.243 171.467L145.279 170.203C145.432 170.137 145.556 170.017 145.628 169.867C145.7 169.717 145.716 169.546 145.672 169.385L187.931 151.659C188.166 151.558 188.351 151.369 188.446 151.132C188.541 150.895 188.539 150.63 188.438 150.395L211.23 140.832C211.583 140.687 211.034 139.392 210.681 139.548L209.003 140.252L208.91 138.408L216.576 135.217ZM136.379 178.191C135.366 178.621 134.226 178.645 133.195 178.26C132.164 177.874 131.32 177.108 130.837 176.119L131.469 175.404L131.79 175.269C132.062 175.657 132.386 176.005 132.753 176.305C133.317 176.751 133.963 177.08 134.655 177.274C135.347 177.468 136.07 177.522 136.783 177.434L136.638 176.295C136.076 176.363 135.505 176.32 134.959 176.167C134.413 176.014 133.903 175.755 133.458 175.404C133.247 175.236 133.053 175.049 132.878 174.844L138.596 172.451C138.623 172.512 138.655 172.571 138.69 172.627C139.107 173.673 139.1 174.84 138.668 175.88C138.236 176.919 137.415 177.749 136.379 178.191ZM206.972 141.123L187.941 149.1L187.268 147.504L206.879 139.278L206.972 141.123Z" fill="#1351B4"/>
<path opacity="0.2" d="M216.576 135.217C217.105 134.989 216.214 132.876 215.685 133.094L143.227 163.49C143.143 163.352 143.012 163.248 142.858 163.199C142.704 163.149 142.537 163.157 142.388 163.22L139.353 164.484C139.204 164.55 139.083 164.666 139.011 164.812C138.939 164.958 138.921 165.124 138.959 165.282L129.428 169.271C127.301 170.172 125.398 171.531 123.854 173.249L119.586 178.015C119.506 179.117 119.006 180.147 118.189 180.892C117.371 181.636 116.299 182.038 115.193 182.013H114.561L92.6602 195.243C91.8551 195.73 91.2287 196.464 90.8741 197.336C90.5195 198.208 90.4555 199.17 90.6918 200.081C91.4542 203.26 92.7428 206.289 94.5043 209.043C94.8591 209.573 95.3257 210.019 95.8715 210.349C96.4172 210.679 97.0287 210.885 97.6629 210.953C98.2971 211.022 98.9385 210.95 99.5419 210.743C100.145 210.537 100.696 210.2 101.155 209.758L123.284 188.447C124.22 187.546 124.804 186.342 124.932 185.049L125.201 182.314L129.987 176.968C130.673 178.184 131.799 179.091 133.134 179.499C134.469 179.908 135.91 179.787 137.158 179.163C138.407 178.539 139.368 177.458 139.842 176.145C140.316 174.832 140.267 173.387 139.705 172.109C139.68 172.044 139.649 171.982 139.612 171.923L141.383 171.177C141.468 171.32 141.601 171.429 141.759 171.482C141.917 171.535 142.089 171.53 142.243 171.467L145.279 170.203C145.432 170.137 145.556 170.017 145.628 169.867C145.7 169.717 145.716 169.546 145.672 169.385L187.931 151.659C188.166 151.558 188.351 151.369 188.446 151.132C188.541 150.895 188.539 150.63 188.438 150.395L211.23 140.832C211.583 140.687 211.034 139.392 210.681 139.548L209.003 140.252L208.91 138.408L216.576 135.217ZM136.379 178.191C135.366 178.621 134.226 178.645 133.195 178.26C132.164 177.874 131.32 177.108 130.837 176.119L131.469 175.404L131.79 175.269C132.062 175.657 132.386 176.005 132.753 176.305C133.317 176.751 133.963 177.08 134.655 177.274C135.347 177.468 136.07 177.522 136.783 177.434L136.638 176.295C136.076 176.363 135.505 176.32 134.959 176.167C134.413 176.014 133.903 175.755 133.458 175.404C133.247 175.236 133.053 175.049 132.878 174.844L138.596 172.451C138.623 172.512 138.655 172.571 138.69 172.627C139.107 173.673 139.1 174.84 138.668 175.88C138.236 176.919 137.415 177.749 136.379 178.191ZM206.972 141.123L187.941 149.1L187.268 147.504L206.879 139.278L206.972 141.123Z" fill="black"/>
<path d="M188.624 147.328L168.546 155.751C168.213 155.891 167.945 156.154 167.799 156.485C167.652 156.817 167.638 157.191 167.759 157.533L168.588 159.812C168.652 159.993 168.752 160.159 168.883 160.3C169.013 160.441 169.171 160.553 169.347 160.631C169.522 160.709 169.712 160.75 169.904 160.751C170.096 160.753 170.286 160.715 170.463 160.641L190.541 152.218C190.874 152.078 191.141 151.814 191.286 151.483C191.43 151.151 191.442 150.776 191.318 150.436L190.499 148.157C190.435 147.976 190.335 147.81 190.205 147.669C190.074 147.528 189.916 147.416 189.741 147.338C189.565 147.26 189.375 147.22 189.183 147.218C188.991 147.216 188.801 147.254 188.624 147.328Z" fill="#1351B4"/>
<path d="M201.399 139.475L202.093 139.289C202.971 139.051 203.898 139.065 204.768 139.329C205.638 139.592 206.416 140.096 207.014 140.781L207.636 141.496C207.801 141.683 207.92 141.908 207.98 142.151C208.041 142.394 208.042 142.648 207.985 142.892C207.927 143.135 207.811 143.361 207.648 143.551C207.484 143.741 207.278 143.889 207.045 143.982L200.218 146.8C200.024 146.88 199.815 146.921 199.605 146.919C199.395 146.918 199.187 146.874 198.994 146.791C198.801 146.708 198.627 146.587 198.481 146.436C198.335 146.284 198.221 146.105 198.146 145.909C197.902 145.275 197.793 144.597 197.827 143.918C197.862 143.24 198.038 142.576 198.344 141.97C198.651 141.364 199.081 140.828 199.607 140.399C200.133 139.969 200.744 139.654 201.399 139.475Z" fill="#B55B52"/>
<path d="M129.086 125.178L128.568 125.8L127.967 126.536L126.745 128.027C125.936 129.063 125.118 130.099 124.32 131.208C122.714 133.353 121.212 135.57 119.689 137.828C118.166 140.087 116.799 142.397 115.39 144.717C113.981 147.038 112.738 149.442 111.505 151.855L110.593 153.679L110.376 154.124C110.352 154.175 110.324 154.223 110.293 154.269C110.222 154.382 110.166 154.504 110.127 154.632C109.85 155.409 109.69 156.222 109.651 157.046C109.568 159.396 109.769 161.747 110.251 164.049C111.352 169.347 112.823 174.56 114.654 179.651L114.727 179.848C115.021 180.716 114.998 181.66 114.663 182.513C114.328 183.366 113.703 184.073 112.897 184.51C112.091 184.946 111.157 185.084 110.26 184.898C109.362 184.712 108.559 184.215 107.993 183.495C106.085 181.074 104.353 178.519 102.813 175.849C101.253 173.141 99.909 170.315 98.7932 167.395C97.5075 164.218 96.6841 160.872 96.3483 157.46C96.1485 155.401 96.2567 153.323 96.6694 151.296C96.7816 150.72 96.9339 150.152 97.1253 149.597L97.4153 148.727L97.6226 148.178L98.4617 146.044C100.705 140.356 103.422 134.867 106.584 129.633C108.169 127.012 109.837 124.453 111.66 121.957C112.572 120.713 113.504 119.47 114.489 118.268C114.986 117.657 115.525 117.056 116.012 116.455L116.809 115.544L117.731 114.508C119.118 113.064 121.009 112.211 123.009 112.127C125.01 112.043 126.965 112.734 128.468 114.057C129.971 115.38 130.906 117.231 131.077 119.226C131.248 121.221 130.642 123.205 129.386 124.764L129.086 125.178Z" fill="#263238"/>
<path d="M137.197 112.581C139.269 111.845 136.638 109.618 136.638 109.618C136.638 109.618 125.646 109.96 119.119 111.69C118.083 112.633 119.264 113.762 119.264 113.762C119.264 113.762 131.023 114.767 137.197 112.581Z" fill="#1351B4"/>
<path opacity="0.2" d="M137.031 109.38C137.031 109.38 138.658 115.502 146.055 120.506C142.823 120.506 138.243 123.739 138.243 123.739C136.877 121.723 135.926 119.456 135.447 117.068C134.969 114.681 134.972 112.222 135.457 109.835C135.912 109.121 137.031 109.38 137.031 109.38Z" fill="black"/>
<path d="M137.25 108.344C138.985 113.167 142.035 117.409 146.056 120.589C143.313 120.797 140.606 121.339 137.996 122.205C137.996 122.205 133.945 118.403 135.457 109.918C135.955 109.29 136.562 108.756 137.25 108.344Z" fill="white"/>
<path d="M113.567 179.216L120 184.759L111.463 190.312C111.463 190.312 106.283 184.583 108.832 181.319L113.567 179.216Z" fill="#B55B52"/>
<path d="M107.941 183.889C107.186 183.278 106.586 182.497 106.19 181.609C108.262 179.486 112.406 177.735 114.261 177.258C115.017 178.199 115.436 179.366 115.452 180.573C115.452 180.573 109.993 181.516 107.941 183.889Z" fill="white"/>
<path d="M120.736 193.555L117.411 194.995C116.77 195.273 116.051 195.314 115.383 195.111C114.715 194.908 114.141 194.474 113.764 193.886L111.464 190.312L120.001 184.759L122.238 189.618C122.402 189.974 122.493 190.36 122.506 190.752C122.518 191.144 122.453 191.535 122.313 191.901C122.173 192.268 121.962 192.603 121.691 192.887C121.42 193.171 121.096 193.398 120.736 193.555Z" fill="#B55B52"/>
<path d="M146.605 91.7675C147.604 91.1088 148.747 90.7008 149.937 90.5781C151.127 90.4555 152.33 90.6218 153.442 91.0631C153.474 91.0775 153.502 91.0982 153.526 91.1239C153.55 91.1496 153.568 91.1798 153.579 91.2127C153.591 91.2456 153.596 91.2805 153.594 91.3153C153.591 91.3501 153.582 91.3841 153.566 91.4153C153.535 91.4775 153.481 91.5252 153.415 91.5484C153.35 91.5716 153.278 91.5684 153.214 91.5396C152.179 91.1438 151.065 90.9984 149.963 91.1155C148.861 91.2325 147.803 91.6086 146.874 92.213C146.815 92.247 146.745 92.2563 146.679 92.2388C146.613 92.2213 146.556 92.1786 146.522 92.1198C146.503 92.0915 146.49 92.0597 146.484 92.0263C146.478 91.993 146.479 91.9588 146.487 91.9258C146.495 91.8928 146.509 91.8617 146.529 91.8345C146.55 91.8073 146.575 91.7845 146.605 91.7675Z" fill="#263238"/>
<path d="M129.656 130.628L143.631 130.1L143.58 128.97L129.614 129.499L129.656 130.628Z" fill="white"/>
<path d="M250.587 383.36H223.465L243.18 226.738H270.313L250.587 383.36Z" fill="#1351B4"/>
<path opacity="0.4" d="M250.587 383.36H223.465L243.18 226.738H270.313L250.587 383.36Z" fill="black"/>
<path d="M221.041 383.36H223.465L243.18 226.738H240.756L221.041 383.36Z" fill="#263238"/>
<path d="M351.752 383.36H324.63L344.345 226.738H371.478L351.752 383.36Z" fill="#1351B4"/>
<path opacity="0.4" d="M351.752 383.36H324.63L344.345 226.738H371.478L351.752 383.36Z" fill="black"/>
<path d="M322.195 383.36H324.63L344.345 226.738H341.921L322.195 383.36Z" fill="#263238"/>
<path d="M275.7 364.722H374.079L369.79 330.628H271.411L275.7 364.722Z" fill="#1351B4"/>
<path d="M275.7 364.722H274.094L269.795 330.628H271.411L275.7 364.722Z" fill="#263238"/>
<path d="M368.661 332.12L372.577 363.231H366.765L351.152 332.12H368.661Z" fill="white"/>
<path d="M341.237 332.12L356.85 363.231H335.508L319.896 332.12H341.237Z" fill="white"/>
<path d="M309.981 332.12L325.594 363.231H304.242L288.64 332.12H309.981Z" fill="white"/>
<path d="M278.735 332.12L294.338 363.231H276.829L272.913 332.12H278.735Z" fill="white"/>
<path d="M364.661 383.36H391.794L372.069 226.738H344.946L364.661 383.36Z" fill="#1351B4"/>
<path opacity="0.2" d="M353.732 296.512L382.274 307.732L374.079 242.692H346.946L353.732 296.512Z" fill="black"/>
<path d="M364.662 383.36H362.238L342.522 226.738H344.947L364.662 383.36Z" fill="#263238"/>
<path d="M263.496 383.36H290.629L270.914 226.738H243.781L263.496 383.36Z" fill="#1351B4"/>
<path opacity="0.2" d="M252.566 296.512L281.108 307.732L272.913 242.692H245.791L252.566 296.512Z" fill="black"/>
<path d="M263.496 383.36H261.072L241.356 226.738H243.781L263.496 383.36Z" fill="#263238"/>
<path d="M241.73 289.291H389.868L383.403 237.958H235.266L241.73 289.291Z" fill="#1351B4"/>
<path d="M241.73 289.291H239.305L232.841 237.958H235.265L241.73 289.291Z" fill="#263238"/>
<path d="M381.703 240.195L387.609 287.043H378.854L355.348 240.195H381.703Z" fill="white"/>
<path d="M340.419 240.195L363.926 287.043H331.779L308.282 240.195H340.419Z" fill="white"/>
<path d="M293.353 240.195L316.86 287.043H284.713L261.206 240.195H293.353Z" fill="white"/>
<path d="M246.298 240.195L269.794 287.043H243.428L237.533 240.195H246.298Z" fill="white"/>
</svg>
