<svg width="300" height="300" viewBox="0 0 300 300" fill="none" xmlns="http://www.w3.org/2000/svg">
<path d="M56.25 125H243.75V206.25H56.25V125Z" fill="#134780"/>
<path d="M150 243.75C201.777 243.75 243.75 226.961 243.75 206.25C243.75 185.539 201.777 168.75 150 168.75C98.2233 168.75 56.25 185.539 56.25 206.25C56.25 226.961 98.2233 243.75 150 243.75Z" fill="#134780"/>
<path d="M144.375 51.25L3.75 113.125C-1.25 115.625 -1.25 122.5 3.75 125L144.375 186.875C148.125 188.125 151.875 188.125 155.625 186.875L296.25 125C301.25 122.5 301.25 115.625 296.25 113.125L155.625 51.25C151.875 49.375 148.125 49.375 144.375 51.25Z" fill="#31659F"/>
<path d="M270 127.5L145 106.25C141.875 105.625 138.125 108.125 137.5 111.25C136.875 114.375 139.375 118.125 142.5 118.75L262.5 138.75V231.25C262.5 235 265 237.5 268.75 237.5C272.5 237.5 275 235 275 231.25V133.75C275 130.625 272.5 128.125 270 127.5Z" fill="#D2A145"/>
<path d="M268.75 243.75C275.654 243.75 281.25 238.154 281.25 231.25C281.25 224.346 275.654 218.75 268.75 218.75C261.846 218.75 256.25 224.346 256.25 231.25C256.25 238.154 261.846 243.75 268.75 243.75Z" fill="#D2A145"/>
<path d="M287.5 250C287.5 260.625 268.75 287.5 268.75 287.5C268.75 287.5 250 260.625 250 250C250 239.375 258.125 231.25 268.75 231.25C279.375 231.25 287.5 239.375 287.5 250Z" fill="#D2A145"/>
</svg>
